{"title":"Hot latin pussy #36 Scene 1 Esther","uid":9879667,"size":75252766,"categoryP":"porn","categoryS":"movie_clips","magnet":"?xt=urn:btih:58ef98ba6c3835fe8f3236a5e62b28604d613dca&amp;dn=Hot+latin+pussy+%2336+Scene+1+Esther&amp;tr=udp%3A%2F%2Ftracker.openbittorrent.com%3A80&amp;tr=udp%3A%2F%2Fopen.demonii.com%3A1337&amp;tr=udp%3A%2F%2Ftracker.coppersurfer.tk%3A6969&amp;tr=udp%3A%2F%2Fexodus.desync.com%3A6969","seeders":0,"leechers":1,"uploader":"2bUnique","files":1,"time":1396526074,"description":"Hot Spicy latina Ester's scene from Hot Latin Pussy #36 where she takes on Nacho Vidal\n\n\nSo you know which cutie she is... http://www.brazilbang.com/blog/pics/jan10/brazil-bang-esther.jpg\n\n...-&gt; http://thepiratebay.se/torrent/9879630/Hot_Latin_Pussy_Adventures_36__2bUnique_\n\nGeneral\n\nFormat : MPEG-4\nFormat profile : Base Media\nCodec ID : isom\nFile size : 71.8 MiB\nDuration : 22mn 24s\nOverall bit rate : 448 Kbps\nWriting application : Lavf53.24.2\n\nVideo\nID : 1\nFormat : AVC\nFormat/Info : Advanced Video Codec\nFormat profile : &lt;a class=&quot;__cf_email__&quot; href=&quot;/cdn-cgi/l/email-protection&quot; data-cfemail=&quot;0f4d6e7c6a6366616a4f433e213c&quot;&gt;[email&amp;#160;protected]&lt;/a&gt;&lt;script cf-hash='f9e31' type=&quot;text/javascript&quot;&gt;\n/* &lt;![CDATA[ */!function(){try{var t=&quot;currentScript&quot;in document?document.currentScript:function(){for(var t=document.getElementsByTagName(&quot;script&quot;),e=t.length;e--;)if(t[e].getAttribute(&quot;cf-hash&quot;))return t[e]}();if(t&amp;&amp;t.previousSibling){var e,r,n,i,c=t.previousSibling,a=c.getAttribute(&quot;data-cfemail&quot;);if(a){for(e=&quot;&quot;,r=parseInt(a.substr(0,2),16),n=2;a.length-n;n+=2)i=parseInt(a.substr(n,2),16)^r,e+=String.fromCharCode(i);e=document.createTextNode(e),c.parentNode.replaceChild(e,c)}}}catch(u){}}();/* ]]&gt; */&lt;/script&gt;\nFormat settings, CABAC : No\nFormat settings, ReFrames : 1 frame\nFormat settings, GOP : M=1, N=50\nCodec ID : avc1\nCodec ID/Info : Advanced Video Coding\nDuration : 22mn 24s\nBit rate : 326 Kbps\nNominal bit rate : 350 Kbps\nWidth : 320 pixels\nHeight : 240 pixels\nDisplay aspect ratio : 4:3\nFrame rate mode : Constant\nFrame rate : 24.000 fps\nBits/(Pixel*Frame) : 0.177\nStream size : 52.3 MiB (73%)\n\nAudio\nID : 2\nFormat : AAC\nFormat/Info : Advanced Audio Codec\nFormat profile : LC\nCodec ID : 40\nDuration : 22mn 24s\nBit rate mode : Constant\nBit rate : 96.0 Kbps\nChannel(s) : 2 channels\nChannel positions : Front: L R\nSampling rate : 44.1 KHz\nCompression mode : Lossy\nStream size : 15.4 MiB (21%)","torrent":{"xt":"urn:btih:58ef98ba6c3835fe8f3236a5e62b28604d613dca","amp;dn":"Hot+latin+pussy+%2336+Scene+1+Esther","amp;tr":["udp%3A%2F%2Ftracker.openbittorrent.com%3A80","udp%3A%2F%2Fopen.demonii.com%3A1337","udp%3A%2F%2Ftracker.coppersurfer.tk%3A6969","udp%3A%2F%2Fexodus.desync.com%3A6969"],"infoHash":"58ef98ba6c3835fe8f3236a5e62b28604d613dca","infoHashBuffer":{"type":"Buffer","data":[88,239,152,186,108,56,53,254,143,50,54,165,230,43,40,96,77,97,61,202]},"announce":[],"urlList":[]}}